<svg xmlns="http://www.w3.org/2000/svg" xmlns:xlink="http://www.w3.org/1999/xlink" width="186" height="59.201" viewBox="0 0 186 59.201">
  <defs>
    <clipPath id="clip-path">
      <rect id="Rectangle_45" data-name="Rectangle 45" width="186" height="59.201" fill="#fff1be"/>
    </clipPath>
  </defs>
  <g id="Group_1325" data-name="Group 1325" transform="translate(0 0)">
    <g id="Group_1324" data-name="Group 1324" transform="translate(0 0)" clip-path="url(#clip-path)">
      <path id="Path_1018" data-name="Path 1018" d="M18.587,0A18.588,18.588,0,1,0,37.176,18.588,18.609,18.609,0,0,0,18.587,0m16.7,18.588a16.651,16.651,0,0,1-.477,3.955L7.533,18.588l27.274-3.956a16.658,16.658,0,0,1,.477,3.956M5.3,21.6l23.086,10.49a16.6,16.6,0,0,1-9.417,3.18ZM18.969,1.9a16.6,16.6,0,0,1,9.417,3.18L5.3,15.571Zm15.28,10.9L7.392,16.7,30.006,6.422a16.748,16.748,0,0,1,4.243,6.38M16.122,2.074,2.074,16.122A16.734,16.734,0,0,1,16.122,2.074M2.074,21.054,16.122,35.1A16.734,16.734,0,0,1,2.074,21.054m27.932,9.7L7.392,20.479l26.857,3.895a16.742,16.742,0,0,1-4.243,6.38" transform="translate(0 0)" fill="#fff1be"/>
      <path id="Path_1019" data-name="Path 1019" d="M60.443,21.636a9.3,9.3,0,0,1,9.633-9.717c4.228,0,8.428,2.168,8.428,7.109h-3.54c0-4.338-2.443-5.929-5.3-5.929-3.458,0-5.791,2.883-5.791,6.89,0,5.654,3.073,8.618,7.027,8.618,3.136,0,5.611-1.738,6.155-4.659a.628.628,0,0,1,.609-.528h.019a.621.621,0,0,1,.612.692,8.062,8.062,0,0,1-8.466,7.349c-5.628,0-9.387-3.816-9.387-9.825" transform="translate(-12.186 -2.403)" fill="#fff1be"/>
      <path id="Path_1020" data-name="Path 1020" d="M85.934,26.709c0-4.5,3.294-6.781,6.971-6.781,3.871,0,6.449,2.472,6.449,6.2,0,4.447-3.211,6.834-7,6.834a6.053,6.053,0,0,1-6.423-6.258m9.963.713c0-3.815-1.236-6.45-3.623-6.45-1.729,0-2.909,1.647-2.909,4.5,0,3.788,1.262,6.4,3.622,6.4,1.757,0,2.91-1.592,2.91-4.448" transform="translate(-17.325 -4.017)" fill="#fff1be"/>
      <path id="Path_1021" data-name="Path 1021" d="M105.579,32.088h0a.576.576,0,0,1,.576-.576h1.621V21.989l-2.635,1.372-.493-1.21,5.391-2.16a.611.611,0,0,1,.838.567v2.034a6.134,6.134,0,0,1,4.64-2.664,3.546,3.546,0,0,1,3.842,3.788v7.8h1.564a.576.576,0,1,1,0,1.153h-6.037a.576.576,0,1,1,0-1.153h1.372V24.266a2.172,2.172,0,0,0-2.362-2.224,4.406,4.406,0,0,0-3.02,1.236v8.234H112.3a.576.576,0,0,1,0,1.153h-6.148a.576.576,0,0,1-.576-.576" transform="translate(-21.098 -4.017)" fill="#fff1be"/>
      <path id="Path_1022" data-name="Path 1022" d="M127.73,32.088h0a.576.576,0,0,1,.576-.576h1.621V21.989l-2.635,1.372-.493-1.21,5.393-2.16a.611.611,0,0,1,.838.567v2.034a6.126,6.126,0,0,1,4.638-2.664,3.546,3.546,0,0,1,3.842,3.788v7.8h1.564a.576.576,0,0,1,0,1.153h-6.037a.576.576,0,1,1,0-1.153h1.372V24.266a2.172,2.172,0,0,0-2.362-2.224,4.4,4.4,0,0,0-3.017,1.236v8.234h1.426a.576.576,0,1,1,0,1.153h-6.148a.576.576,0,0,1-.576-.576" transform="translate(-25.563 -4.017)" fill="#fff1be"/>
      <path id="Path_1023" data-name="Path 1023" d="M149.978,26.46c0-3.978,2.718-6.532,6.095-6.532,2.978,0,4.786,1.384,5.38,3.538a1.352,1.352,0,0,1-1.3,1.705h-7.316c-.054,3.268,1.647,5.217,4.2,5.217a3.432,3.432,0,0,0,3.679-2.91h.878a5.151,5.151,0,0,1-5.515,5.489c-3.735,0-6.095-2.307-6.095-6.506m8.316-2.277c0-1.81-.8-3.156-2.635-3.156-1.535,0-2.689,1.263-2.771,3.156Z" transform="translate(-30.237 -4.017)" fill="#fff1be"/>
      <path id="Path_1024" data-name="Path 1024" d="M167.555,26.543a6.24,6.24,0,0,1,6.258-6.615c2.75,0,4.769,1.188,5.348,3.312a.986.986,0,0,1-.952,1.228l-1.2.01a.993.993,0,0,1-1-.831c-.219-1.567-1.086-2.455-2.5-2.455-1.62,0-2.91,1.374-2.91,4.145,0,3.239,1.784,5.078,4.09,5.078a3.4,3.4,0,0,0,3.679-2.771h.878c.026,2.745-1.73,5.324-5.491,5.324-3.732,0-6.2-2.5-6.2-6.423" transform="translate(-33.78 -4.017)" fill="#fff1be"/>
      <path id="Path_1025" data-name="Path 1025" d="M186.466,28.157V21.795a1.219,1.219,0,0,0-1.184-1.219l-.736-.022v-.932l1.481-.472a2.044,2.044,0,0,0,1.419-2.1l-.264-3.55h2.3l-.291,3.206a2.045,2.045,0,0,0,2.037,2.23h3.113v1.618h-3.556a1.22,1.22,0,0,0-1.22,1.22v5.863c0,1.647.905,2.031,1.976,2.031a1.693,1.693,0,0,0,1.922-1.756l-.186-2.6a.776.776,0,1,1,1.55-.019l-.128,2.7c-.109,2.416-1.784,3.678-4.145,3.678-2.334,0-4.09-.768-4.09-3.513" transform="translate(-37.206 -2.721)" fill="#fff1be"/>
      <path id="Path_1026" data-name="Path 1026" d="M200.264,26.709c0-4.5,3.294-6.781,6.971-6.781,3.871,0,6.449,2.472,6.449,6.2,0,4.447-3.211,6.834-7,6.834a6.053,6.053,0,0,1-6.423-6.258m9.963.713c0-3.815-1.236-6.45-3.623-6.45-1.729,0-2.909,1.647-2.909,4.5,0,3.788,1.262,6.4,3.622,6.4,1.757,0,2.91-1.592,2.91-4.448" transform="translate(-40.375 -4.017)" fill="#fff1be"/>
      <path id="Path_1027" data-name="Path 1027" d="M219.806,32.054h0a.576.576,0,0,1,.576-.576h1.756V21.954L219.5,23.327l-.494-1.21,5.394-2.16a.611.611,0,0,1,.837.567v3.9c1.756-3.513,2.744-4.667,4.913-4.667v3.377h-1.482a4.069,4.069,0,0,0-3.431,2v6.341h2.8a.576.576,0,0,1,0,1.153h-7.657a.576.576,0,0,1-.576-.576" transform="translate(-44.154 -3.983)" fill="#fff1be"/>
      <path id="Path_1028" data-name="Path 1028" d="M60.443,61.75h0a.631.631,0,0,1,.632-.631h1.894V44.925H61.075a.632.632,0,1,1,0-1.263h3.76l6.2-.109c7.083-.136,10.378,3.65,10.378,9.059,0,5.681-4.037,9.771-10.322,9.771H61.075a.631.631,0,0,1-.632-.632m5.956-.714h4.528c4.338,0,6.7-2.827,6.7-7.547,0-5.545-2.91-8.647-8.044-8.647H66.4Z" transform="translate(-12.186 -8.779)" fill="#fff1be"/>
      <path id="Path_1029" data-name="Path 1029" d="M89.685,61.8h0a.577.577,0,0,1,.576-.577h1.757V51.7l-2.635,1.372-.493-1.209,5.429-2.176a.585.585,0,0,1,.8.543V61.223h1.7a.577.577,0,1,1,0,1.154h-6.56a.577.577,0,0,1-.576-.576m2.085-16.195c0-1.538.852-2.085,1.812-2.085,1.015,0,1.84.548,1.84,2.085s-.825,2.141-1.84,2.141c-.96,0-1.812-.6-1.812-2.141" transform="translate(-17.921 -8.774)" fill="#fff1be"/>
      <path id="Path_1030" data-name="Path 1030" d="M101.448,63.31h0a.576.576,0,0,1,.576-.576h1.756V53.21l-2.635,1.372-.494-1.21,5.394-2.16a.611.611,0,0,1,.838.567v3.9c1.756-3.513,2.744-4.667,4.913-4.667V54.39h-1.482a4.068,4.068,0,0,0-3.431,2v6.341h2.8a.576.576,0,1,1,0,1.153h-7.657a.576.576,0,0,1-.576-.576" transform="translate(-20.292 -10.284)" fill="#fff1be"/>
      <path id="Path_1031" data-name="Path 1031" d="M116.888,57.716c0-3.978,2.718-6.532,6.095-6.532,2.978,0,4.786,1.384,5.38,3.538a1.352,1.352,0,0,1-1.3,1.705h-7.316c-.054,3.268,1.647,5.217,4.2,5.217a3.432,3.432,0,0,0,3.679-2.91h.878a5.151,5.151,0,0,1-5.515,5.489c-3.735,0-6.095-2.307-6.095-6.506m8.316-2.277c0-1.81-.8-3.156-2.635-3.156-1.535,0-2.689,1.263-2.771,3.156Z" transform="translate(-23.565 -10.319)" fill="#fff1be"/>
      <path id="Path_1032" data-name="Path 1032" d="M134.464,57.8a6.24,6.24,0,0,1,6.258-6.615c2.75,0,4.769,1.188,5.348,3.312a.986.986,0,0,1-.952,1.228l-1.2.01a.993.993,0,0,1-1-.831c-.219-1.567-1.086-2.455-2.5-2.455-1.62,0-2.91,1.374-2.91,4.145,0,3.239,1.784,5.078,4.09,5.078a3.4,3.4,0,0,0,3.679-2.771h.878c.026,2.745-1.73,5.324-5.491,5.324-3.732,0-6.2-2.5-6.2-6.423" transform="translate(-27.109 -10.319)" fill="#fff1be"/>
      <path id="Path_1033" data-name="Path 1033" d="M153.376,59.414V53.052a1.219,1.219,0,0,0-1.184-1.219l-.736-.022v-.932l1.481-.472a2.044,2.044,0,0,0,1.419-2.1l-.264-3.55h2.3l-.291,3.206a2.045,2.045,0,0,0,2.037,2.23h3.113v1.618H157.7a1.22,1.22,0,0,0-1.22,1.22v5.863c0,1.647.905,2.031,1.976,2.031a1.693,1.693,0,0,0,1.922-1.756l-.186-2.6a.776.776,0,1,1,1.55-.019l-.128,2.7c-.109,2.416-1.784,3.678-4.145,3.678-2.334,0-4.09-.768-4.09-3.513" transform="translate(-30.535 -9.023)" fill="#fff1be"/>
      <path id="Path_1034" data-name="Path 1034" d="M167.174,57.965c0-4.5,3.294-6.781,6.971-6.781,3.871,0,6.449,2.472,6.449,6.2,0,4.447-3.211,6.834-7,6.834a6.053,6.053,0,0,1-6.423-6.258m9.963.713c0-3.815-1.236-6.45-3.623-6.45-1.729,0-2.909,1.647-2.909,4.5,0,3.788,1.262,6.4,3.622,6.4,1.757,0,2.91-1.592,2.91-4.448" transform="translate(-33.703 -10.319)" fill="#fff1be"/>
      <path id="Path_1035" data-name="Path 1035" d="M186.716,63.31h0a.576.576,0,0,1,.576-.576h1.757V53.21l-2.635,1.372-.494-1.21,5.394-2.16a.611.611,0,0,1,.838.567v3.9c1.756-3.513,2.744-4.667,4.912-4.667V54.39h-1.482a4.068,4.068,0,0,0-3.431,2v6.341h2.8a.576.576,0,0,1,0,1.153h-7.657a.576.576,0,0,1-.576-.576" transform="translate(-37.483 -10.284)" fill="#fff1be"/>
      <path id="Path_1036" data-name="Path 1036" d="M201.864,65.618h2.691c0,1.453.494,2.141,1.234,2.141s1.318-.576,2.362-3.46l-5.792-11.583h-.522a.576.576,0,0,1,0-1.151h5.382a.576.576,0,0,1,0,1.151h-1.51l3.924,8.126,2.36-5.956-.056-2.17h-1.483a.576.576,0,0,1,0-1.151h4.175a.576.576,0,0,1,0,1.151h-.412L208.505,66.55c-.769,1.867-1.81,3.047-3.54,3.047-1.62,0-3.185-1.18-3.1-3.978" transform="translate(-40.575 -10.396)" fill="#fff1be"/>
    </g>
  </g>
</svg>
