<svg xmlns="http://www.w3.org/2000/svg" xmlns:xlink="http://www.w3.org/1999/xlink" width="164" height="52.199" viewBox="0 0 164 52.199">
  <defs>
    <clipPath id="clip-path">
      <rect id="Rectangle_45" data-name="Rectangle 45" width="164" height="52.199" fill="#fe5000"/>
    </clipPath>
  </defs>
  <g id="Group_1324" data-name="Group 1324" clip-path="url(#clip-path)">
    <path id="Path_1018" data-name="Path 1018" d="M16.389,0a16.389,16.389,0,1,0,16.39,16.39A16.408,16.408,0,0,0,16.389,0M31.111,16.39a14.682,14.682,0,0,1-.421,3.487L6.642,16.39,30.69,12.9a14.688,14.688,0,0,1,.421,3.488M4.673,19.049,25.029,28.3a14.632,14.632,0,0,1-8.3,2.8ZM16.725,1.676a14.632,14.632,0,0,1,8.3,2.8L4.673,13.729ZM30.2,11.288,6.518,14.723l19.939-9.06A14.767,14.767,0,0,1,30.2,11.288M14.215,1.829,1.829,14.215A14.755,14.755,0,0,1,14.215,1.829M1.829,18.563,14.215,30.95A14.755,14.755,0,0,1,1.829,18.563m24.628,8.552L6.518,18.057,30.2,21.49a14.762,14.762,0,0,1-3.742,5.625" transform="translate(0 0)" fill="#fe5000"/>
    <path id="Path_1019" data-name="Path 1019" d="M60.443,20.487a8.2,8.2,0,0,1,8.493-8.568c3.728,0,7.431,1.911,7.431,6.268H73.246c0-3.825-2.154-5.228-4.672-5.228-3.049,0-5.106,2.542-5.106,6.075,0,4.985,2.71,7.6,6.2,7.6,2.765,0,4.947-1.533,5.427-4.108a.553.553,0,0,1,.537-.465h.017a.548.548,0,0,1,.54.61,7.108,7.108,0,0,1-7.465,6.48c-4.962,0-8.276-3.364-8.276-8.663" transform="translate(-17.894 -3.528)" fill="#fe5000"/>
    <path id="Path_1020" data-name="Path 1020" d="M85.934,25.907c0-3.969,2.9-5.979,6.146-5.979,3.413,0,5.687,2.179,5.687,5.47,0,3.921-2.831,6.026-6.17,6.026a5.337,5.337,0,0,1-5.663-5.518m8.785.629c0-3.364-1.09-5.687-3.195-5.687-1.525,0-2.565,1.452-2.565,3.969,0,3.34,1.113,5.64,3.194,5.64,1.549,0,2.566-1.4,2.566-3.922" transform="translate(-25.44 -5.899)" fill="#fe5000"/>
    <path id="Path_1021" data-name="Path 1021" d="M105.469,30.65h0a.508.508,0,0,1,.508-.508h1.429v-8.4l-2.324,1.21-.435-1.067,4.753-1.9a.538.538,0,0,1,.738.5v1.794a5.409,5.409,0,0,1,4.091-2.349,3.127,3.127,0,0,1,3.387,3.34v6.873H119a.508.508,0,1,1,0,1.017h-5.323a.508.508,0,1,1,0-1.017h1.21V23.753a1.915,1.915,0,0,0-2.083-1.961,3.885,3.885,0,0,0-2.662,1.09v7.26H111.4a.508.508,0,0,1,0,1.017h-5.421a.508.508,0,0,1-.508-.508" transform="translate(-30.98 -5.899)" fill="#fe5000"/>
    <path id="Path_1022" data-name="Path 1022" d="M127.62,30.65h0a.508.508,0,0,1,.508-.508h1.429v-8.4l-2.324,1.21-.435-1.067,4.755-1.9a.539.539,0,0,1,.738.5v1.794a5.4,5.4,0,0,1,4.089-2.349,3.127,3.127,0,0,1,3.387,3.34v6.873h1.379a.508.508,0,0,1,0,1.017h-5.323a.508.508,0,0,1,0-1.017h1.21V23.753a1.915,1.915,0,0,0-2.083-1.961,3.876,3.876,0,0,0-2.66,1.09v7.26h1.257a.508.508,0,1,1,0,1.017h-5.421a.508.508,0,0,1-.508-.508" transform="translate(-37.537 -5.899)" fill="#fe5000"/>
    <path id="Path_1023" data-name="Path 1023" d="M149.978,25.688c0-3.507,2.4-5.76,5.374-5.76,2.626,0,4.22,1.22,4.744,3.119a1.192,1.192,0,0,1-1.15,1.5h-6.451c-.048,2.881,1.452,4.6,3.7,4.6a3.026,3.026,0,0,0,3.244-2.566h.774a4.542,4.542,0,0,1-4.863,4.84c-3.293,0-5.374-2.034-5.374-5.737m7.332-2.008c0-1.6-.7-2.783-2.323-2.783-1.354,0-2.371,1.114-2.443,2.783Z" transform="translate(-44.4 -5.899)" fill="#fe5000"/>
    <path id="Path_1024" data-name="Path 1024" d="M167.555,25.761a5.5,5.5,0,0,1,5.518-5.833c2.425,0,4.2,1.047,4.715,2.92a.869.869,0,0,1-.84,1.083l-1.055.008a.876.876,0,0,1-.884-.733c-.193-1.382-.957-2.165-2.2-2.165-1.428,0-2.566,1.212-2.566,3.655,0,2.856,1.573,4.477,3.606,4.477a3,3,0,0,0,3.244-2.443h.774a4.478,4.478,0,0,1-4.842,4.694c-3.291,0-5.468-2.2-5.468-5.663" transform="translate(-49.603 -5.899)" fill="#fe5000"/>
    <path id="Path_1025" data-name="Path 1025" d="M186.239,26.423v-5.61a1.075,1.075,0,0,0-1.044-1.075l-.649-.019V18.9l1.306-.416a1.8,1.8,0,0,0,1.251-1.851L186.87,13.5H188.9l-.257,2.826a1.8,1.8,0,0,0,1.8,1.966h2.745v1.427H190.05a1.076,1.076,0,0,0-1.076,1.076v5.169c0,1.452.8,1.791,1.742,1.791a1.493,1.493,0,0,0,1.694-1.549l-.164-2.293a.684.684,0,1,1,1.366-.017l-.113,2.381c-.1,2.13-1.573,3.243-3.655,3.243-2.058,0-3.606-.677-3.606-3.1" transform="translate(-54.633 -3.996)" fill="#fe5000"/>
    <path id="Path_1026" data-name="Path 1026" d="M200.264,25.907c0-3.969,2.9-5.979,6.146-5.979,3.413,0,5.687,2.179,5.687,5.47,0,3.921-2.831,6.026-6.169,6.026a5.337,5.337,0,0,1-5.663-5.518m8.785.629c0-3.364-1.09-5.687-3.195-5.687-1.525,0-2.565,1.452-2.565,3.969,0,3.34,1.113,5.64,3.194,5.64,1.549,0,2.566-1.4,2.566-3.922" transform="translate(-59.286 -5.899)" fill="#fe5000"/>
    <path id="Path_1027" data-name="Path 1027" d="M219.712,30.6h0a.508.508,0,0,1,.508-.508h1.549v-8.4l-2.323,1.21-.436-1.066,4.756-1.9a.538.538,0,0,1,.738.5v3.439c1.549-3.1,2.42-4.115,4.331-4.115v2.978h-1.307A3.587,3.587,0,0,0,224.5,24.5v5.591h2.467a.508.508,0,0,1,0,1.017H220.22a.508.508,0,0,1-.508-.508" transform="translate(-64.836 -5.849)" fill="#fe5000"/>
    <path id="Path_1028" data-name="Path 1028" d="M60.443,59.6h0A.557.557,0,0,1,61,59.041h1.67V44.762H61a.557.557,0,1,1,0-1.114h3.316l5.468-.1c6.245-.12,9.15,3.219,9.15,7.987,0,5.009-3.559,8.615-9.1,8.615H61a.557.557,0,0,1-.557-.557m5.252-.629h3.992c3.825,0,5.906-2.493,5.906-6.655,0-4.889-2.566-7.625-7.092-7.625H65.695Z" transform="translate(-17.894 -12.892)" fill="#fe5000"/>
    <path id="Path_1029" data-name="Path 1029" d="M89.591,59.638h0a.509.509,0,0,1,.508-.509h1.549v-8.4l-2.324,1.209-.435-1.066,4.787-1.918a.516.516,0,0,1,.707.479v9.692h1.5a.509.509,0,1,1,0,1.017H90.1a.509.509,0,0,1-.508-.508M91.43,45.359c0-1.356.751-1.839,1.6-1.839.895,0,1.622.483,1.622,1.839s-.727,1.888-1.622,1.888c-.847,0-1.6-.532-1.6-1.888" transform="translate(-26.315 -12.883)" fill="#fe5000"/>
    <path id="Path_1030" data-name="Path 1030" d="M101.354,61.855h0a.508.508,0,0,1,.508-.508h1.549v-8.4l-2.323,1.21-.436-1.066,4.756-1.9a.539.539,0,0,1,.738.5v3.439c1.549-3.1,2.419-4.115,4.331-4.115v2.978h-1.307a3.587,3.587,0,0,0-3.025,1.766v5.591h2.467a.508.508,0,1,1,0,1.017h-6.752a.508.508,0,0,1-.508-.508" transform="translate(-29.797 -15.102)" fill="#fe5000"/>
    <path id="Path_1031" data-name="Path 1031" d="M116.888,56.944c0-3.507,2.4-5.76,5.374-5.76,2.626,0,4.22,1.22,4.744,3.119a1.192,1.192,0,0,1-1.15,1.5H119.4c-.048,2.881,1.452,4.6,3.7,4.6a3.026,3.026,0,0,0,3.244-2.566h.774a4.542,4.542,0,0,1-4.863,4.84c-3.293,0-5.374-2.034-5.374-5.737m7.332-2.008c0-1.6-.7-2.783-2.323-2.783-1.354,0-2.371,1.114-2.443,2.783Z" transform="translate(-34.604 -15.152)" fill="#fe5000"/>
    <path id="Path_1032" data-name="Path 1032" d="M134.464,57.017a5.5,5.5,0,0,1,5.518-5.833c2.425,0,4.2,1.047,4.715,2.92a.869.869,0,0,1-.84,1.083L142.8,55.2a.876.876,0,0,1-.884-.733c-.193-1.382-.957-2.165-2.2-2.165-1.428,0-2.566,1.212-2.566,3.655,0,2.856,1.573,4.477,3.606,4.477A3,3,0,0,0,144,57.986h.774a4.478,4.478,0,0,1-4.842,4.694c-3.291,0-5.468-2.2-5.468-5.663" transform="translate(-39.807 -15.152)" fill="#fe5000"/>
    <path id="Path_1033" data-name="Path 1033" d="M153.149,57.68V52.07A1.075,1.075,0,0,0,152.105,51l-.649-.019v-.822l1.306-.416a1.8,1.8,0,0,0,1.251-1.851l-.233-3.131h2.032l-.257,2.826a1.8,1.8,0,0,0,1.8,1.966h2.745v1.427H156.96a1.076,1.076,0,0,0-1.076,1.076v5.169c0,1.452.8,1.791,1.742,1.791a1.493,1.493,0,0,0,1.694-1.549l-.164-2.293a.684.684,0,1,1,1.366-.017l-.113,2.381c-.1,2.13-1.573,3.243-3.655,3.243-2.058,0-3.606-.677-3.606-3.1" transform="translate(-44.837 -13.25)" fill="#fe5000"/>
    <path id="Path_1034" data-name="Path 1034" d="M167.174,57.163c0-3.969,2.9-5.979,6.146-5.979,3.413,0,5.687,2.179,5.687,5.47,0,3.921-2.831,6.026-6.17,6.026a5.337,5.337,0,0,1-5.663-5.518m8.785.629c0-3.364-1.09-5.687-3.195-5.687-1.525,0-2.565,1.452-2.565,3.969,0,3.34,1.113,5.64,3.194,5.64,1.549,0,2.566-1.4,2.566-3.922" transform="translate(-49.49 -15.152)" fill="#fe5000"/>
    <path id="Path_1035" data-name="Path 1035" d="M186.622,61.855h0a.508.508,0,0,1,.508-.508h1.549v-8.4l-2.323,1.21-.436-1.066,4.756-1.9a.539.539,0,0,1,.738.5v3.439c1.549-3.1,2.419-4.115,4.331-4.115v2.978h-1.307a3.587,3.587,0,0,0-3.025,1.766v5.591h2.467a.508.508,0,0,1,0,1.017H187.13a.508.508,0,0,1-.508-.508" transform="translate(-55.04 -15.102)" fill="#fe5000"/>
    <path id="Path_1036" data-name="Path 1036" d="M201.792,63.956h2.372c0,1.281.436,1.888,1.088,1.888s1.162-.508,2.082-3.051L202.228,52.58h-.46a.508.508,0,0,1,0-1.015h4.745a.508.508,0,0,1,0,1.015h-1.331l3.46,7.165,2.081-5.252-.049-1.913h-1.307a.508.508,0,0,1,0-1.015h3.681a.508.508,0,0,1,0,1.015h-.363l-5.035,12.2c-.678,1.646-1.6,2.686-3.121,2.686-1.428,0-2.808-1.04-2.735-3.508" transform="translate(-59.581 -15.265)" fill="#fe5000"/>
  </g>
</svg>
