<svg xmlns="http://www.w3.org/2000/svg" width="58" height="58" viewBox="0 0 58 58">
  <g id="Group_1491" data-name="Group 1491" transform="translate(-651 -164)">
    <circle id="Ellipse_12" data-name="Ellipse 12" cx="29" cy="29" r="29" transform="translate(651 164)" fill="#13322b"/>
    <g id="Group_1489" data-name="Group 1489" transform="translate(90 -70.801)">
      <path id="Path_1018" data-name="Path 1018" d="M23.434,0A23.435,23.435,0,1,0,46.869,23.435,23.461,23.461,0,0,0,23.434,0M44.485,23.435a20.993,20.993,0,0,1-.6,4.987L9.5,23.435l34.386-4.988a21,21,0,0,1,.6,4.988m-37.8,3.8L35.788,40.463a20.922,20.922,0,0,1-11.873,4.009ZM23.915,2.4A20.922,20.922,0,0,1,35.788,6.406L6.682,19.631ZM43.18,16.14,9.32,21.052,37.83,8.1a21.115,21.115,0,0,1,5.35,8.044M20.326,2.615,2.615,20.326A21.1,21.1,0,0,1,20.326,2.615M2.615,26.543,20.326,44.254A21.1,21.1,0,0,1,2.615,26.543M37.83,38.772,9.32,25.819l33.86,4.91a21.107,21.107,0,0,1-5.35,8.044" transform="translate(567 240.801)" fill="#fff"/>
    </g>
  </g>
</svg>
