<svg xmlns="http://www.w3.org/2000/svg" xmlns:xlink="http://www.w3.org/1999/xlink" width="32" height="21.347" viewBox="0 0 32 21.347">
  <defs>
    <clipPath id="clip-path">
      <rect id="Rectangle_53" data-name="Rectangle 53" width="32" height="21.347" fill="#13322b"/>
    </clipPath>
  </defs>
  <g id="Group_1329" data-name="Group 1329" transform="translate(0 0)">
    <g id="Group_1328" data-name="Group 1328" transform="translate(0 0)" clip-path="url(#clip-path)">
      <path id="Path_1037" data-name="Path 1037" d="M20.69,3.778H1.889A1.889,1.889,0,0,1,1.889,0h18.8a1.889,1.889,0,1,1,0,3.778" transform="translate(0 0)" fill="#13322b"/>
      <path id="Path_1038" data-name="Path 1038" d="M16.21,9.139a8.585,8.585,0,0,0-1.761,3.778H1.89a1.889,1.889,0,0,1,0-3.778Z" transform="translate(0 -2.233)" fill="#13322b"/>
      <path id="Path_1039" data-name="Path 1039" d="M16.014,22.057H1.89a1.889,1.889,0,0,1,0-3.778H14.412a8.629,8.629,0,0,0,1.6,3.778" transform="translate(0 -4.466)" fill="#13322b"/>
      <path id="Path_1040" data-name="Path 1040" d="M37.268,21.565l-3.884-3.884a5.712,5.712,0,1,0-1.6,1.6l3.884,3.884a1.127,1.127,0,0,0,.8.332,1.153,1.153,0,0,0,.8-.332,1.14,1.14,0,0,0,0-1.6m-6.212-4.6a3.457,3.457,0,0,1-4.874,0,3.447,3.447,0,1,1,4.874,0" transform="translate(-5.597 -2.152)" fill="#13322b"/>
    </g>
  </g>
</svg>
