<svg xmlns="http://www.w3.org/2000/svg" xmlns:xlink="http://www.w3.org/1999/xlink" width="44.571" height="46.558" viewBox="0 0 44.571 46.558">
  <defs>
    <clipPath id="clip-path">
      <rect id="Rectangle_54" data-name="Rectangle 54" width="44.571" height="46.558" transform="translate(0 0)" fill="#fff1be"/>
    </clipPath>
  </defs>
  <g id="Group_1332" data-name="Group 1332" transform="translate(0 0)">
    <g id="Group_1331" data-name="Group 1331" transform="translate(0 0)" clip-path="url(#clip-path)">
      <path id="Path_1041" data-name="Path 1041" d="M43.605,28.138,10.1,23.279l33.5-4.859a1.127,1.127,0,0,0-.324-2.231L9.936,21.026,37.569,8.47a1.127,1.127,0,1,0-.932-2.052L7.442,19.684,24.076,3.05a1.127,1.127,0,0,0-1.594-1.593L4.506,19.431V2.254A2.254,2.254,0,0,0,0,2.254V44.3a2.254,2.254,0,1,0,4.507,0V27.126L22.482,45.1a1.127,1.127,0,0,0,1.594-1.593L7.442,26.874l29.2,13.265a1.127,1.127,0,1,0,.932-2.051L9.936,25.531l33.345,4.837a1.145,1.145,0,0,0,.163.012,1.127,1.127,0,0,0,.161-2.242" transform="translate(0 0)" fill="#fff1be"/>
    </g>
  </g>
</svg>
