<svg xmlns="http://www.w3.org/2000/svg" xmlns:xlink="http://www.w3.org/1999/xlink" width="25.333" height="26.463" viewBox="0 0 25.333 26.463">
  <defs>
    <clipPath id="clip-path">
      <rect id="Rectangle_54" data-name="Rectangle 54" width="25.333" height="26.463" transform="translate(0 0)" fill="#13322b"/>
    </clipPath>
  </defs>
  <g id="Group_1331" data-name="Group 1331" clip-path="url(#clip-path)">
    <path id="Path_1041" data-name="Path 1041" d="M24.784,15.993,5.743,13.231l19.041-2.762A.641.641,0,0,0,24.6,9.2L5.647,11.951,21.353,4.814a.64.64,0,1,0-.53-1.166L4.229,11.188l9.454-9.454a.64.64,0,0,0-.906-.906L2.561,11.044V1.281A1.281,1.281,0,0,0,0,1.281v23.9a1.281,1.281,0,1,0,2.562,0V15.418L12.778,25.634a.64.64,0,1,0,.906-.906L4.229,15.274l16.594,7.54a.64.64,0,1,0,.53-1.166L5.647,14.512,24.6,17.261a.651.651,0,0,0,.093.007.641.641,0,0,0,.091-1.275" transform="translate(0.001 0)" fill="#13322b"/>
  </g>
</svg>
