<svg xmlns="http://www.w3.org/2000/svg" xmlns:xlink="http://www.w3.org/1999/xlink" width="209" height="159" viewBox="0 0 209 159">
  <defs>
    <clipPath id="clip-path">
      <rect id="Rectangle_96" data-name="Rectangle 96" width="209" height="159" fill="#fe5000"/>
    </clipPath>
  </defs>
  <g id="Group_1394" data-name="Group 1394" transform="translate(0 0.008)">
    <g id="Group_1358" data-name="Group 1358" transform="translate(0 -0.008)" clip-path="url(#clip-path)">
      <path id="Path_1060" data-name="Path 1060" d="M33.147,0A33.147,33.147,0,1,0,66.294,33.148,33.184,33.184,0,0,0,33.147,0M62.922,33.148A29.737,29.737,0,0,1,62.07,40.2L13.433,33.148,62.07,26.093a29.755,29.755,0,0,1,.852,7.055M9.45,38.528,50.621,57.235a29.607,29.607,0,0,1-16.793,5.67ZM33.827,3.39A29.6,29.6,0,0,1,50.621,9.061L9.45,27.767Zm27.249,19.44L13.182,29.776,53.509,11.453a29.871,29.871,0,0,1,7.567,11.377M28.749,3.7,3.7,28.75A29.843,29.843,0,0,1,28.749,3.7M3.7,37.545,28.749,62.6A29.842,29.842,0,0,1,3.7,37.545m49.81,17.3L13.182,36.519l47.894,6.947a29.853,29.853,0,0,1-7.567,11.377" transform="translate(0 0.017)" fill="#fe5000"/>
      <path id="Path_1061" data-name="Path 1061" d="M2.329,86.763c0-8.275,5.774-14.5,14.376-14.5,6.31,0,12.578,3.235,12.578,10.609H24c0-6.474-3.646-8.848-7.908-8.848-5.16,0-8.642,4.3-8.642,10.283,0,8.438,4.586,12.861,10.487,12.861,4.68,0,8.374-2.594,9.185-6.954a.937.937,0,0,1,.909-.788h.029a.927.927,0,0,1,.914,1.033c-.572,5.685-4.91,10.968-12.635,10.968-8.4,0-14.009-5.694-14.009-14.663" transform="translate(0.446 13.856)" fill="#fe5000"/>
      <path id="Path_1062" data-name="Path 1062" d="M27.819,90.389c0-6.718,4.916-10.12,10.4-10.12,5.777,0,9.625,3.689,9.625,9.259,0,6.637-4.792,10.2-10.443,10.2s-9.586-3.809-9.586-9.339m14.869,1.064c0-5.693-1.844-9.626-5.407-9.626-2.581,0-4.342,2.458-4.342,6.718,0,5.654,1.884,9.546,5.406,9.546,2.623,0,4.343-2.376,4.343-6.638" transform="translate(5.328 15.39)" fill="#fe5000"/>
      <path id="Path_1063" data-name="Path 1063" d="M47.924,98.417h0a.859.859,0,0,1,.859-.86H51.2V83.344l-3.933,2.048-.736-1.805,8.046-3.224a.911.911,0,0,1,1.249.846v3.036c1.642-2.091,4.017-3.976,6.926-3.976,3.644,0,5.732,2.295,5.732,5.654V97.557H70.82a.86.86,0,0,1,0,1.721H61.811a.86.86,0,0,1,0-1.721H63.86V86.744a3.242,3.242,0,0,0-3.526-3.32,6.579,6.579,0,0,0-4.508,1.844V97.557H57.96a.86.86,0,0,1,0,1.721H48.783a.859.859,0,0,1-.859-.86" transform="translate(8.912 15.39)" fill="#fe5000"/>
      <path id="Path_1064" data-name="Path 1064" d="M70.074,98.417h0a.86.86,0,0,1,.86-.86h2.419V83.344l-3.933,2.048-.736-1.805,8.049-3.224a.911.911,0,0,1,1.25.846v3.036c1.638-2.091,4.013-3.976,6.922-3.976,3.645,0,5.734,2.295,5.734,5.654V97.557h2.334a.86.86,0,1,1,0,1.721H83.962a.86.86,0,0,1,0-1.721H86.01V86.744a3.241,3.241,0,0,0-3.526-3.32,6.561,6.561,0,0,0-4.5,1.844V97.557H80.11a.86.86,0,0,1,0,1.721H70.934a.86.86,0,0,1-.86-.86" transform="translate(13.154 15.39)" fill="#fe5000"/>
      <path id="Path_1065" data-name="Path 1065" d="M91.864,90.018c0-5.936,4.056-9.749,9.1-9.749,4.444,0,7.142,2.065,8.03,5.28a2.018,2.018,0,0,1-1.947,2.545H96.124c-.081,4.877,2.458,7.785,6.266,7.785,2.665,0,5.04-1.394,5.491-4.343h1.311c.041,4.873-3.155,8.192-8.231,8.192-5.574,0-9.1-3.442-9.1-9.71m12.411-3.4c0-2.7-1.188-4.71-3.932-4.71-2.291,0-4.013,1.885-4.136,4.71Z" transform="translate(17.594 15.39)" fill="#fe5000"/>
      <path id="Path_1066" data-name="Path 1066" d="M109.44,90.142c0-6.39,4.629-9.873,9.339-9.873,4.1,0,7.117,1.773,7.981,4.942a1.471,1.471,0,0,1-1.42,1.833l-1.787.014a1.483,1.483,0,0,1-1.5-1.24c-.326-2.339-1.62-3.664-3.727-3.664-2.418,0-4.343,2.051-4.343,6.186,0,4.834,2.662,7.578,6.1,7.578,2.949,0,5.04-1.557,5.491-4.136h1.311c.039,4.1-2.582,7.945-8.2,7.945-5.57,0-9.256-3.728-9.256-9.586" transform="translate(20.96 15.39)" fill="#fe5000"/>
      <path id="Path_1067" data-name="Path 1067" d="M129.3,95.716v-9.5A1.819,1.819,0,0,0,127.53,84.4l-1.1-.032V82.979l2.21-.7a3.05,3.05,0,0,0,2.117-3.134l-.394-5.3H133.8l-.435,4.784a3.052,3.052,0,0,0,3.04,3.328h4.646v2.415h-5.307a1.82,1.82,0,0,0-1.821,1.821v8.749c0,2.458,1.351,3.031,2.949,3.031,1.8,0,2.868-.983,2.868-2.621l-.278-3.882a1.159,1.159,0,1,1,2.313-.029l-.191,4.031c-.163,3.606-2.662,5.489-6.186,5.489-3.483,0-6.1-1.146-6.1-5.243" transform="translate(24.214 14.159)" fill="#fe5000"/>
      <path id="Path_1068" data-name="Path 1068" d="M142.15,90.389c0-6.718,4.916-10.12,10.4-10.12,5.777,0,9.625,3.689,9.625,9.259,0,6.637-4.792,10.2-10.443,10.2s-9.586-3.809-9.586-9.339m14.869,1.064c0-5.693-1.844-9.626-5.407-9.626-2.581,0-4.342,2.458-4.342,6.718,0,5.654,1.884,9.546,5.406,9.546,2.623,0,4.343-2.376,4.343-6.638" transform="translate(27.225 15.39)" fill="#fe5000"/>
      <path id="Path_1069" data-name="Path 1069" d="M162.084,98.45h0a.86.86,0,0,1,.86-.86h2.621V83.377l-3.932,2.048L160.9,83.62l8.05-3.224a.911.911,0,0,1,1.25.846v5.821c2.621-5.243,4.1-6.964,7.331-6.964v5.04h-2.211a6.072,6.072,0,0,0-5.12,2.988V97.59h4.176a.86.86,0,1,1,0,1.721H162.944a.86.86,0,0,1-.86-.86" transform="translate(30.815 15.357)" fill="#fe5000"/>
      <path id="Path_1070" data-name="Path 1070" d="M2.329,131.054h0a.942.942,0,0,1,.942-.941H6.1V105.944H3.271a.942.942,0,1,1,0-1.885H8.884l9.255-.163c10.57-.2,15.487,5.448,15.487,13.519,0,8.478-6.024,14.582-15.4,14.582H3.271a.942.942,0,0,1-.942-.943m8.889-1.065h6.757c6.475,0,10-4.219,10-11.264,0-8.275-4.343-12.905-12-12.905H11.218Z" transform="translate(0.446 19.914)" fill="#fe5000"/>
      <path id="Path_1071" data-name="Path 1071" d="M31.962,131.142h0a.862.862,0,0,1,.86-.861h2.623V116.069l-3.933,2.047-.736-1.8,8.1-3.247a.873.873,0,0,1,1.2.81v16.4h2.538a.861.861,0,1,1,0,1.722h-9.79a.861.861,0,0,1-.86-.86m3.112-24.169c0-2.295,1.271-3.112,2.7-3.112,1.514,0,2.745.817,2.745,3.112s-1.231,3.2-2.745,3.2c-1.433,0-2.7-.9-2.7-3.2" transform="translate(5.894 19.909)" fill="#fe5000"/>
      <path id="Path_1072" data-name="Path 1072" d="M43.725,129.707h0a.86.86,0,0,1,.86-.86h2.621V114.634l-3.932,2.048-.738-1.805,8.05-3.224a.911.911,0,0,1,1.25.846v5.821c2.621-5.243,4.1-6.964,7.331-6.964v5.04H56.957a6.072,6.072,0,0,0-5.12,2.988v9.463h4.176a.86.86,0,1,1,0,1.721H44.585a.86.86,0,0,1-.86-.86" transform="translate(8.147 21.344)" fill="#fe5000"/>
      <path id="Path_1073" data-name="Path 1073" d="M58.773,121.275c0-5.936,4.056-9.749,9.1-9.749,4.444,0,7.142,2.065,8.03,5.28a2.018,2.018,0,0,1-1.947,2.545H63.033c-.081,4.877,2.458,7.785,6.266,7.785,2.665,0,5.04-1.394,5.491-4.343H76.1c.04,4.873-3.155,8.192-8.231,8.192-5.574,0-9.1-3.442-9.1-9.71m12.411-3.4c0-2.7-1.188-4.71-3.932-4.71-2.291,0-4.013,1.885-4.136,4.71Z" transform="translate(11.256 21.377)" fill="#fe5000"/>
      <path id="Path_1074" data-name="Path 1074" d="M76.35,121.4c0-6.39,4.629-9.873,9.339-9.873,4.1,0,7.117,1.773,7.981,4.942a1.471,1.471,0,0,1-1.42,1.833l-1.787.014a1.483,1.483,0,0,1-1.5-1.24c-.327-2.339-1.62-3.664-3.727-3.664-2.418,0-4.343,2.051-4.343,6.186,0,4.834,2.662,7.578,6.1,7.578,2.949,0,5.04-1.557,5.491-4.136H93.8c.039,4.1-2.582,7.945-8.2,7.945-5.57,0-9.256-3.728-9.256-9.586" transform="translate(14.623 21.377)" fill="#fe5000"/>
      <path id="Path_1075" data-name="Path 1075" d="M96.207,126.972v-9.5a1.82,1.82,0,0,0-1.767-1.819l-1.1-.032v-1.391l2.21-.7a3.05,3.05,0,0,0,2.117-3.134l-.394-5.3h3.439l-.435,4.784a3.052,3.052,0,0,0,3.04,3.328h4.646v2.415h-5.307a1.82,1.82,0,0,0-1.821,1.821V126.2c0,2.458,1.351,3.031,2.949,3.031,1.8,0,2.868-.983,2.868-2.621l-.278-3.882a1.159,1.159,0,1,1,2.313-.029l-.191,4.031c-.163,3.605-2.662,5.489-6.186,5.489-3.483,0-6.1-1.146-6.1-5.243" transform="translate(17.877 20.146)" fill="#fe5000"/>
      <path id="Path_1076" data-name="Path 1076" d="M109.06,121.646c0-6.718,4.916-10.12,10.4-10.12,5.777,0,9.625,3.689,9.625,9.259,0,6.637-4.792,10.2-10.442,10.2s-9.586-3.809-9.586-9.339m14.869,1.064c0-5.693-1.844-9.626-5.407-9.626-2.581,0-4.342,2.458-4.342,6.718,0,5.654,1.884,9.547,5.406,9.547,2.623,0,4.343-2.376,4.343-6.638" transform="translate(20.888 21.377)" fill="#fe5000"/>
      <path id="Path_1077" data-name="Path 1077" d="M128.994,129.707h0a.86.86,0,0,1,.86-.86h2.621V114.634l-3.932,2.048-.737-1.805,8.05-3.224a.912.912,0,0,1,1.25.846v5.821c2.621-5.243,4.1-6.964,7.331-6.964v5.04h-2.211a6.072,6.072,0,0,0-5.12,2.988v9.463h4.176a.86.86,0,1,1,0,1.721H129.854a.86.86,0,0,1-.86-.86" transform="translate(24.478 21.344)" fill="#fe5000"/>
      <path id="Path_1078" data-name="Path 1078" d="M144.047,132.879h4.015c0,2.169.738,3.2,1.842,3.2s1.967-.86,3.525-5.164l-8.645-17.287h-.779a.859.859,0,1,1,0-1.718h8.032a.859.859,0,0,1,0,1.718h-2.253l5.856,12.127,3.522-8.889-.083-3.239h-2.213a.859.859,0,0,1,0-1.718H163.1a.859.859,0,0,1,0,1.718h-.615l-8.523,20.645c-1.147,2.786-2.7,4.547-5.283,4.547-2.418,0-4.753-1.761-4.629-5.937" transform="translate(27.416 21.449)" fill="#fe5000"/>
    </g>
  </g>
</svg>
