<svg id="Group_1339" data-name="Group 1339" xmlns="http://www.w3.org/2000/svg" xmlns:xlink="http://www.w3.org/1999/xlink" width="164" height="27.83" viewBox="0 0 164 27.83">
  <defs>
    <clipPath id="clip-path">
      <rect id="Rectangle_75" data-name="Rectangle 75" width="164" height="27.83" fill="#009739"/>
    </clipPath>
  </defs>
  <g id="Group_1338" data-name="Group 1338" clip-path="url(#clip-path)">
    <path id="Path_1042" data-name="Path 1042" d="M684.087,27.485v8.548a1.219,1.219,0,0,0,.284.88,1.8,1.8,0,0,0,.937.483v.6h-8.037v-.6a1.8,1.8,0,0,0,.937-.483,1.3,1.3,0,0,0,.255-.88V14.195a1.3,1.3,0,0,0-.255-.88,1.8,1.8,0,0,0-.937-.483v-.625H693.4a25.535,25.535,0,0,1,4.686.341,8.163,8.163,0,0,1,3.01,1.193,5.847,5.847,0,0,1,2.215,2.67,8.89,8.89,0,0,1,.71,3.464c0,4.2-2.329,6.674-7.014,7.384l5,7.128a17.408,17.408,0,0,0,1.931,2.414,2.312,2.312,0,0,0,1.505.6v.6h-9.315v-.6c.653-.114.966-.341.966-.682a4.754,4.754,0,0,0-.88-1.647l-5.225-7.582Zm0-4.26h8.69a20.567,20.567,0,0,0,2.726-.114,3.966,3.966,0,0,0,1.448-.483,2.874,2.874,0,0,0,1.448-2.783,2.874,2.874,0,0,0-1.448-2.783,3.8,3.8,0,0,0-1.448-.483,26.338,26.338,0,0,0-2.726-.114h-8.69Z" transform="translate(-637.884 -11.497)" fill="#009739"/>
    <path id="Path_1043" data-name="Path 1043" d="M1258.432,30.5l6.844-15.136a4.084,4.084,0,0,0,.426-1.505c0-.54-.426-.88-1.249-1.051v-.6h8.832v.6a1.856,1.856,0,0,0-1.164.483,9.475,9.475,0,0,0-1.107,2.073l-8.946,19.282a5.647,5.647,0,0,0-.568,1.619c0,.653.4,1.022,1.193,1.136v.6H1253.8v-.6c.795-.114,1.193-.511,1.193-1.164a5.9,5.9,0,0,0-.568-1.59l-8.946-19.282a13.084,13.084,0,0,0-1.108-2.073,2.027,2.027,0,0,0-1.164-.483v-.6h9.144v.6c-.823.17-1.249.511-1.249,1.051a4.23,4.23,0,0,0,.426,1.505Z" transform="translate(-1170.909 -11.497)" fill="#009739"/>
    <path id="Path_1044" data-name="Path 1044" d="M1903.263,36V14.195a1.264,1.264,0,0,0-.284-.88,2.128,2.128,0,0,0-1.051-.483v-.625h8.832v.6a2.131,2.131,0,0,0-1.051.483,1.219,1.219,0,0,0-.284.88V36a1.3,1.3,0,0,0,.312.909,2.141,2.141,0,0,0,1.022.483v.6h-8.832v-.6a2.128,2.128,0,0,0,1.051-.483,1.292,1.292,0,0,0,.284-.909" transform="translate(-1791.317 -11.497)" fill="#009739"/>
    <path id="Path_1045" data-name="Path 1045" d="M2251,25.6a7.355,7.355,0,0,0,1.108-8.349,7.04,7.04,0,0,0-2.215-2.527,11.633,11.633,0,0,0-3.181-1.42,25.853,25.853,0,0,0-4.742-.8l-3.294-.312a28.721,28.721,0,0,1-4.345-.6c-1.335-.369-2.016-1.108-2.016-2.187a2.467,2.467,0,0,1,.795-1.789,5.045,5.045,0,0,1,2.044-1.221,13.87,13.87,0,0,1,3.948-.511,15.769,15.769,0,0,1,8.832,2.471q1.277.809,1.278,1.533a.965.965,0,0,1-.029.256l.426.227,3.322-6.191-.426-.227a1.87,1.87,0,0,1-1.051.426,6.294,6.294,0,0,1-1.534-.454A38.74,38.74,0,0,0,2244.017,2a23.858,23.858,0,0,0-5.083-.54c-4.316,0-7.583.994-9.741,2.925a7.2,7.2,0,0,0-2.471,5.595,6.759,6.759,0,0,0,.965,3.635,6.831,6.831,0,0,0,2.954,2.641,10.986,10.986,0,0,0,2.669.909,41.075,41.075,0,0,0,4.572.6l3.237.312a22.574,22.574,0,0,1,4.345.738,2.108,2.108,0,0,1,1.59,2.016,2.825,2.825,0,0,1-.682,1.789,4.5,4.5,0,0,1-1.789,1.335,11.672,11.672,0,0,1-4.8.909,20.183,20.183,0,0,1-5.452-.824,11.671,11.671,0,0,1-4.26-2.016,2.244,2.244,0,0,1-.937-1.732v-.2l-.455-.2-3.01,6.446.455.227a1.819,1.819,0,0,1,.88-.426,5.409,5.409,0,0,1,1.448.511,26.344,26.344,0,0,0,11.189,2.556,23.048,23.048,0,0,0,5.907-.738A9.8,9.8,0,0,0,2251,25.6" transform="translate(-2096.232 -1.379)" fill="#009739"/>
    <path id="Path_1046" data-name="Path 1046" d="M20.7.852a15.732,15.732,0,0,1,4.941,2.556,13.2,13.2,0,0,1,3.663,4.317,12.545,12.545,0,0,1,1.42,6.191,12.94,12.94,0,0,1-1.42,6.191,13.918,13.918,0,0,1-3.663,4.317A14.962,14.962,0,0,1,20.7,26.893a19.562,19.562,0,0,1-5.339.767,19.562,19.562,0,0,1-5.339-.767,14.438,14.438,0,0,1-4.941-2.471A13.2,13.2,0,0,1,1.42,20.106,12.545,12.545,0,0,1,0,13.915,12.94,12.94,0,0,1,1.42,7.724,13.918,13.918,0,0,1,5.083,3.408,16.368,16.368,0,0,1,10.025.852,17.75,17.75,0,0,1,15.363,0,17.89,17.89,0,0,1,20.7.852M11.927,5.31A9.915,9.915,0,0,0,8.832,7.1,9,9,0,0,0,6.588,9.968a8.613,8.613,0,0,0-.852,3.891,8.577,8.577,0,0,0,3.1,6.759,10.5,10.5,0,0,0,3.1,1.789,9.762,9.762,0,0,0,6.872,0,10.5,10.5,0,0,0,3.1-1.789,9,9,0,0,0,2.243-2.868,8.613,8.613,0,0,0,.852-3.891A8.577,8.577,0,0,0,21.9,7.1,10.5,10.5,0,0,0,18.8,5.31a9.894,9.894,0,0,0-3.436-.625,9.778,9.778,0,0,0-3.436.625" transform="translate(0 0)" fill="#009739"/>
    <path id="Path_1047" data-name="Path 1047" d="M2752.456,42.488a1.577,1.577,0,0,1,1.59-1.619,1.594,1.594,0,0,1,1.59,1.619,1.591,1.591,0,1,1-3.181,0m1.59,1.959a1.96,1.96,0,1,0-1.988-1.959,1.945,1.945,0,0,0,1.988,1.959m-.4-1.817h.4l.6.965h.369l-.653-.994a.589.589,0,0,0,.6-.625c0-.454-.255-.653-.795-.653h-.852v2.3h.341Zm0-.284v-.71h.455c.227,0,.483.057.483.341,0,.341-.256.369-.54.369Z" transform="translate(-2592.006 -38.171)" fill="#009739"/>
  </g>
</svg>
