<svg xmlns="http://www.w3.org/2000/svg" xmlns:xlink="http://www.w3.org/1999/xlink" width="164" height="78.233" viewBox="0 0 164 78.233">
  <defs>
    <clipPath id="clip-path">
      <rect id="Rectangle_78" data-name="Rectangle 78" width="164" height="78.233" fill="#009739"/>
    </clipPath>
  </defs>
  <g id="Group_1343" data-name="Group 1343" transform="translate(0 0)">
    <path id="Path_1048" data-name="Path 1048" d="M44.245,56.91l9.94-9.778V74.225Zm24.528-4.328,7.856-7.535v10.9H68.773ZM37.353,35.59l7.214,4.168L42,42.323ZM28.375,0,16.351,20.039l6.413-2.084-11.7,21.161,7.054-3.687L5.771,57.873l8.5-4.008L0,78.072H68.773V69.415h1.6l9.138,8.657H97.63L84.485,64.926l7.374-7.374-.16-21H71.338l-2.244,1.6V32.544l21-20.84,20.039,19.879h4.328l17.954-17.635,17.955,17.795h3.046L129.051,7.535,110.135,26.612,84,.32l-38.8,38.636L33.345,17.635,39.6,20.52Z" transform="translate(0 0)" fill="#009739"/>
    <path id="Path_1049" data-name="Path 1049" d="M114.3,41.7V83.378h31.742V72.316H129.37v-5.29h16.673V56.766H129.37V51.316h16.351V41.7Z" transform="translate(-14.105 -5.146)" fill="#009739"/>
    <rect id="Rectangle_77" data-name="Rectangle 77" width="13.947" height="41.681" transform="translate(139.953 36.551)" fill="#009739"/>
    <g id="Group_1342" data-name="Group 1342" transform="translate(0 0)">
      <g id="Group_1341" data-name="Group 1341" clip-path="url(#clip-path)">
        <path id="Path_1050" data-name="Path 1050" d="M179.223,45.429a3.386,3.386,0,0,0,3.366,3.366,3.37,3.37,0,1,0,0-6.733,3.386,3.386,0,0,0-3.366,3.367m.642,0a2.742,2.742,0,0,1,2.724-2.886,2.778,2.778,0,0,1,2.886,2.886,2.874,2.874,0,0,1-2.886,2.886,2.844,2.844,0,0,1-2.724-2.886m1.442-2.085h1.6c.962,0,1.282.481,1.282,1.123,0,.8-.32,1.122-.962,1.122l1.122,1.763h-.641l-1.123-1.763h-.641v1.763h-.642Zm.642,1.764h.641c.481,0,1.123,0,1.123-.641,0-.481-.481-.642-.962-.642h-.8Z" transform="translate(-22.117 -5.19)" fill="#009739" fill-rule="evenodd"/>
      </g>
    </g>
  </g>
</svg>
